<?xml version="1.0" standalone="no"?>
<!DOCTYPE svg PUBLIC "-//W3C//DTD SVG 20010904//EN"
 "http://www.w3.org/TR/2001/REC-SVG-20010904/DTD/svg10.dtd">
<svg version="1.0" xmlns="http://www.w3.org/2000/svg"
 width="260.000000pt" height="260.000000pt" viewBox="0 0 260.000000 260.000000"
 preserveAspectRatio="xMidYMid meet">
<metadata>
Created by potrace 1.11, written by Peter Selinger 2001-2013
</metadata>
<g transform="translate(0.000000,260.000000) scale(0.100000,-0.100000)"
fill="#000000" stroke="none">
<path d="M0 2346 l0 -253 40 1 c29 0 45 -5 60 -22 18 -19 19 -23 6 -28 -9 -3
-23 -4 -31 0 -8 3 -15 1 -15 -5 0 -6 -7 -9 -15 -6 -8 4 -17 2 -20 -4 -4 -5
-11 -7 -16 -4 -5 4 -9 -40 -9 -107 l0 -113 31 -18 c18 -10 29 -21 25 -24 -3
-4 -11 -2 -17 4 -6 6 -18 9 -25 6 -11 -4 -14 -28 -14 -99 0 -83 2 -94 18 -94
14 0 15 -2 2 -10 -15 -10 99 -7 189 6 31 4 46 2 52 -8 5 -7 9 105 9 255 l0
269 308 -5 c169 -2 316 -7 328 -11 18 -6 25 0 49 41 52 90 183 197 270 219 60
16 183 5 220 -20 25 -17 101 -91 138 -133 28 -34 67 -44 67 -18 0 8 4 15 10
15 5 0 7 6 4 14 -3 7 7 21 23 31 15 10 36 27 47 37 11 10 26 18 33 18 7 0 13
4 13 8 0 5 10 13 23 19 27 12 64 -8 52 -27 -6 -9 -10 -9 -16 1 -7 11 -9 9 -10
-6 0 -11 -3 -14 -6 -8 -8 20 -43 -4 -44 -30 0 -12 -3 -17 -5 -10 -6 13 -34 6
-34 -9 0 -5 4 -6 10 -3 5 3 10 1 10 -5 0 -7 -8 -9 -19 -5 -11 3 -22 1 -26 -5
-3 -5 1 -10 9 -10 9 0 16 -5 16 -11 0 -6 -8 -9 -19 -6 -15 3 -17 0 -13 -17 5
-20 4 -20 -15 -3 -11 9 -23 14 -26 11 -4 -4 1 -13 11 -20 16 -13 15 -14 -19
-18 -14 -1 -28 -36 -22 -53 3 -8 22 -13 44 -13 34 0 39 3 45 28 10 49 26 82
53 112 23 26 30 28 61 21 19 -5 30 -9 24 -10 -6 -1 -27 -12 -47 -25 -19 -13
-38 -22 -40 -19 -6 6 -37 -50 -37 -67 0 -7 122 -10 381 -10 l380 0 -3 -22 -3
-23 -378 -3 c-323 -2 -379 -4 -383 -17 -5 -11 -24 -15 -73 -16 -36 -1 -53 -4
-37 -6 l29 -5 -24 -12 c-26 -14 -54 -2 -42 17 4 6 1 7 -6 2 -9 -5 -10 -10 -2
-18 14 -14 14 -30 1 -22 -6 4 -10 -17 -10 -54 0 -34 4 -61 10 -61 6 0 10 -9
10 -20 0 -11 -3 -20 -7 -20 -5 0 -8 -13 -8 -30 0 -16 3 -30 6 -30 3 0 11 -12
18 -26 10 -22 9 -26 -6 -30 -14 -4 -18 -17 -20 -62 l-2 -57 20 55 c29 75 33
97 20 104 -6 4 -11 12 -11 17 0 19 25 -16 51 -71 58 -121 179 -213 375 -284
100 -36 102 -36 257 -36 93 0 158 -4 162 -10 4 -6 -24 -11 -77 -12 -62 -1 -70
-3 -30 -5 48 -4 53 -6 50 -26 l-3 -22 -405 -5 c-223 -3 -406 -7 -407 -8 -2 -1
-3 -107 -3 -236 l0 -234 -25 -16 -25 -16 0 250 0 250 -22 0 c-13 0 -29 4 -37
9 -12 8 -12 12 -2 25 7 9 11 22 8 31 -4 8 6 29 21 47 26 31 27 35 30 183 3
142 2 152 -17 169 -12 11 -21 14 -21 9 0 -6 7 -16 15 -23 18 -15 10 -31 -12
-23 -11 4 -14 3 -9 -5 4 -7 14 -12 22 -12 8 0 14 -7 14 -15 0 -17 -21 -20 -36
-5 -6 6 -10 -4 -11 -29 -1 -26 3 -41 13 -45 18 -7 19 -36 1 -36 -7 0 -18 5
-25 12 -19 19 -25 1 -8 -24 22 -30 20 -45 -2 -25 -10 10 -22 17 -26 17 -12 0
5 -44 22 -57 14 -12 14 -13 -1 -13 -9 0 -22 8 -28 18 -11 18 -14 17 -44 -15
-28 -30 -36 -33 -54 -24 -12 7 -21 19 -21 28 0 9 -3 14 -6 10 -3 -3 0 -21 7
-41 l13 -36 -54 -49 c-30 -27 -58 -47 -64 -44 -5 4 -2 -4 7 -18 22 -31 21 -46
-4 -54 -25 -8 -51 21 -43 49 4 12 2 16 -5 12 -6 -4 -11 -14 -11 -22 0 -22 -16
-17 -34 11 -9 13 -32 40 -51 59 l-34 35 -68 -35 c-45 -23 -98 -40 -158 -50
-49 -9 -91 -17 -91 -17 -1 -1 39 -69 89 -151 85 -140 89 -150 72 -162 -10 -8
-22 -14 -26 -14 -3 0 -51 74 -105 165 l-99 165 -182 0 -183 0 -1 -352 c0 -254
-3 -346 -11 -328 -6 16 -8 88 -5 193 5 159 4 167 -14 167 -18 0 -19 12 -19
279 l0 278 -40 -7 c-29 -5 -43 -3 -51 6 -6 8 -17 14 -23 13 -7 0 -6 -2 2 -6
20 -8 14 -33 -9 -33 -17 0 -20 5 -16 21 4 16 3 18 -8 9 -10 -9 -20 -8 -37 1
-22 12 -23 11 -6 -8 23 -26 23 -32 -2 -26 -20 5 -20 0 -20 -741 l0 -746 1300
0 1300 0 0 1300 0 1300 -1300 0 -1300 0 0 -254z m1933 -20 c6 -16 -26 -32 -42
-22 -5 4 -11 2 -13 -3 -1 -5 -12 -3 -23 5 -17 13 -18 16 -5 24 23 15 77 12 83
-4z m-123 -76 c0 -5 -4 -10 -10 -10 -5 0 -10 5 -10 10 0 6 5 10 10 10 6 0 10
-4 10 -10z m90 -39 c0 -24 -26 -51 -48 -51 -12 0 -9 6 11 18 15 10 24 21 21
25 -6 6 3 27 12 27 2 0 4 -9 4 -19z m-216 -112 c-3 -5 -10 -7 -15 -3 -5 3 -7
10 -3 15 3 5 10 7 15 3 5 -3 7 -10 3 -15z m-39 -139 c-3 -5 -10 -10 -16 -10
-5 0 -9 5 -9 10 0 6 7 10 16 10 8 0 12 -4 9 -10z m-5 -70 c0 -5 -4 -10 -9 -10
-6 0 -13 5 -16 10 -3 6 1 10 9 10 9 0 16 -4 16 -10z m-22 -34 c3 -12 -1 -17
-10 -14 -7 3 -15 13 -16 22 -3 12 1 17 10 14 7 -3 15 -13 16 -22z m15 -71 c4
-8 2 -17 -3 -20 -6 -4 -10 3 -10 14 0 25 6 27 13 6z m-133 -159 c0 -2 3 -11 6
-20 9 -23 -13 -20 -26 4 -9 16 -8 20 5 20 8 0 15 -2 15 -4z m-1320 -136 c0 -5
-9 -10 -21 -10 -11 0 -17 5 -14 10 3 6 13 10 21 10 8 0 14 -4 14 -10z m1220
-29 c0 -12 -20 -25 -27 -18 -7 7 6 27 18 27 5 0 9 -4 9 -9z m10 -41 c0 -5 -2
-10 -4 -10 -3 0 -8 5 -11 10 -3 6 -1 10 4 10 6 0 11 -4 11 -10z m-53 -46 c-3
-3 -12 -4 -19 -1 -8 3 -5 6 6 6 11 1 17 -2 13 -5z m-49 -16 c13 -13 17 -48 5
-48 -12 0 -43 33 -43 47 0 16 22 17 38 1z m1245 -5 c-7 -2 -21 -2 -30 0 -10 3
-4 5 12 5 17 0 24 -2 18 -5z m-66 -9 c-3 -3 -12 -4 -19 -1 -8 3 -5 6 6 6 11 1
17 -2 13 -5z m-1225 -39 c15 -33 -2 -55 -27 -35 -23 19 -18 60 7 60 5 0 14
-11 20 -25z m-202 -91 c0 -12 -5 -26 -11 -30 -7 -4 -9 0 -5 14 4 11 2 23 -4
27 -5 3 -10 13 -10 22 0 13 3 13 15 3 8 -7 15 -23 15 -36z m26 37 c-4 -5 2 -7
12 -4 26 6 42 -17 31 -44 -5 -13 -13 -23 -19 -23 -6 0 -8 5 -5 10 4 6 -5 20
-19 31 -29 23 -34 39 -10 39 8 0 13 -4 10 -9z m1494 -2 c12 -8 11 -9 -6 -5
-11 4 -39 0 -62 -8 -42 -15 -53 -11 -30 12 15 15 78 16 98 1z m-7 -26 c-7 -2
-21 -2 -30 0 -10 3 -4 5 12 5 17 0 24 -2 18 -5z m-1601 -281 c18 -31 31 -64
31 -74 -1 -10 3 -17 9 -15 6 1 52 -65 102 -148 50 -82 95 -156 99 -162 6 -10
-1 -13 -25 -13 -33 0 -36 4 -124 153 -50 83 -113 187 -139 230 -37 59 -46 80
-36 87 25 15 51 -3 83 -58z m-652 -182 l0 -230 -23 0 c-22 0 -23 2 -26 143 -3
164 18 317 44 317 3 0 5 -103 5 -230z m1310 -65 l0 -115 210 0 c178 0 212 -2
216 -15 9 -22 349 -22 358 0 4 11 21 15 61 15 52 0 55 -1 55 -25 0 -24 -2 -25
-69 -25 -49 0 -72 -4 -81 -15 -19 -22 -335 -22 -326 0 5 13 -25 15 -234 15
l-240 0 0 140 0 140 25 0 25 0 0 -115z m-70 -56 c0 -10 -9 -23 -20 -29 -19
-10 -20 -8 -20 36 0 46 0 47 20 29 11 -10 20 -26 20 -36z"/>
<path d="M1452 2134 c9 -9 21 -15 27 -13 6 2 -2 10 -17 17 -25 11 -25 11 -10
-4z"/>
<path d="M1515 2110 c3 -5 8 -10 11 -10 2 0 4 5 4 10 0 6 -5 10 -11 10 -5 0
-7 -4 -4 -10z"/>
<path d="M1064 2076 c11 -9 24 -16 30 -16 12 0 7 5 -24 19 -24 11 -24 11 -6
-3z"/>
<path d="M1540 2079 c0 -5 5 -7 10 -4 6 3 10 8 10 11 0 2 -4 4 -10 4 -5 0 -10
-5 -10 -11z"/>
<path d="M1568 2063 c7 -3 16 -2 19 1 4 3 -2 6 -13 5 -11 0 -14 -3 -6 -6z"/>
<path d="M1101 2047 c-6 -8 -10 -31 -8 -53 2 -36 0 -39 -26 -42 l-27 -3 21
-30 21 -30 19 25 c11 14 28 28 39 31 11 4 18 11 14 16 -3 5 8 15 25 22 30 13
30 13 10 27 -12 8 -32 23 -44 33 -28 21 -29 21 -44 4z"/>
<path d="M320 1805 l0 -237 28 6 c15 3 63 8 107 11 44 4 141 15 215 26 121 18
141 23 190 56 49 32 180 158 180 174 0 4 -8 17 -18 30 -21 26 -53 34 -64 16
-6 -9 -8 -9 -8 1 0 7 -5 10 -10 7 -8 -5 -7 -11 0 -20 16 -20 9 -47 -9 -36 -10
7 -16 35 -19 94 -4 82 -5 85 -31 92 -14 4 -146 9 -293 12 l-268 5 0 -237z"/>
<path d="M1402 2015 c9 -12 29 -22 44 -23 34 -3 51 -24 26 -33 -14 -5 -13 -7
8 -14 l25 -9 -30 -7 c-23 -5 -25 -7 -8 -8 12 0 29 -11 37 -23 15 -21 16 -18
16 50 0 68 -1 72 -22 74 -24 1 -43 0 -68 -6 -8 -2 -22 2 -30 8 -10 7 -10 4 2
-9z"/>
<path d="M1011 1987 c2 -1 13 -9 24 -17 19 -14 19 -14 6 3 -7 9 -18 17 -24 17
-6 0 -8 -1 -6 -3z"/>
<path d="M1185 1933 c-31 -7 -40 -21 -11 -16 15 3 29 9 32 14 3 5 4 8 2 8 -2
-1 -12 -3 -23 -6z"/>
<path d="M1500 1770 c0 -5 5 -10 11 -10 5 0 7 5 4 10 -3 6 -8 10 -11 10 -2 0
-4 -4 -4 -10z"/>
<path d="M1572 1545 c0 -16 2 -22 5 -12 2 9 2 23 0 30 -3 6 -5 -1 -5 -18z"/>
<path d="M408 1553 c18 -2 45 -2 60 0 15 2 0 4 -33 4 -33 0 -45 -2 -27 -4z"/>
<path d="M526 1535 c16 -12 17 -14 2 -15 -11 0 -15 -6 -11 -20 5 -18 3 -19
-21 -10 -14 5 -26 7 -26 4 0 -3 -13 4 -29 15 -16 12 -35 21 -43 20 -7 0 -3 -4
10 -9 32 -13 27 -30 -9 -30 -21 0 -30 4 -26 13 3 7 -4 12 -18 12 -14 0 -21 -5
-18 -12 3 -9 -4 -13 -22 -13 -19 0 -26 4 -22 14 4 10 0 12 -14 9 -17 -5 -19
-15 -19 -94 l0 -89 209 0 c254 0 344 11 431 52 l65 30 -40 18 c-22 10 -48 19
-58 19 -10 1 -28 6 -39 12 -11 6 -35 13 -52 16 -17 3 -33 9 -36 13 -5 9 -193
60 -219 60 -11 0 -10 -4 5 -15z m137 -43 c9 -8 17 -19 17 -24 0 -10 -33 -11
-45 0 -6 5 -29 14 -52 22 -23 7 -40 17 -37 21 8 13 97 -2 117 -19z"/>
<path d="M1070 1410 c0 -5 5 -10 11 -10 5 0 7 5 4 10 -3 6 -8 10 -11 10 -2 0
-4 -4 -4 -10z"/>
</g>
</svg>
